<?xml version="1.0" standalone="no"?><!DOCTYPE svg PUBLIC "-//W3C//DTD SVG 1.1//EN" "http://www.w3.org/Graphics/SVG/1.1/DTD/svg11.dtd"><svg class="icon" height="512" viewBox="0 0 1024 1024" version="1.1" xmlns="http://www.w3.org/2000/svg"><path d="M162.47296 777.64096a26.40896 26.40896 0 0 1-26.38336-26.37824 26.41408 26.41408 0 0 1 26.38336-26.38336h700.27776a26.41408 26.41408 0 0 1 26.38336 26.38336 26.40896 26.40896 0 0 1-26.38336 26.37824H162.47296z m0-239.30368c-14.55104 0-26.38336-11.83744-26.38336-26.38336s11.83744-26.38336 26.38336-26.38336h700.27776c14.55104 0 26.38336 11.83744 26.38336 26.38336s-11.83744 26.38336-26.38336 26.38336H162.47296z m0-239.21152c-14.55104 0-26.38336-11.83744-26.38336-26.38336s11.83744-26.38336 26.38336-26.38336h700.27776c14.55104 0 26.38336 11.83744 26.38336 26.38336s-11.83744 26.38336-26.38336 26.38336H162.47296zM862.75072 294.00576H162.47808c-11.75552 0-21.26336-9.51296-21.26336-21.26336s9.51296-21.26336 21.26336-21.26336h700.27776c11.75552 0 21.26336 9.51296 21.26336 21.26336s-9.51296 21.26336-21.26848 21.26336z m0 239.2064H162.47808a21.248 21.248 0 0 1-21.26336-21.26336 21.248 21.248 0 0 1 21.26336-21.26336h700.27776a21.248 21.248 0 0 1 21.26336 21.26336 21.248 21.248 0 0 1-21.26848 21.26336z m0 239.3088H162.47808c-11.75552 0-21.26336-9.51296-21.26336-21.26336s9.51296-21.26336 21.26336-21.26336h700.27776a21.248 21.248 0 0 1 21.26336 21.26336 21.248 21.248 0 0 1-21.26848 21.26336z" /></svg>